# xmcd CD database file
#
# Track frame offsets:
#	182
#	15432
#	29110
#	47020
#	72985
#	91720
#	105960
#	121247
#	133527
#	148732
#	160380
#	180035
#
# Disc length: 2676 seconds
#
# Revision: 0
# Processed by: cddbd v1.4PL0 Copyright (c) Steve Scherf et al.
# Submitted via: CDex 1.51
#
DISCID=930a720c
DTITLE=Louis Armstrong - What a wonderful world
DYEAR=1900
DGENRE=Blues
TTITLE0=What a wonderful world
TTITLE1=Everybody's talkin'
TTITLE2=Boy from new orleans
TTITLE3=We shall overcome
TTITLE4=The creator has a master plan
TTITLE5=Rockin' chair
TTITLE6=Mood indigo
TTITLE7=This black cat has 9 lives
TTITLE8=My one and only love
TTITLE9=His father wore long hair
TTITLE10=Give peace a chance
TTITLE11=Save it pretty mama
EXTD=
EXTT0=
EXTT1=
EXTT2=
EXTT3=
EXTT4=
EXTT5=
EXTT6=
EXTT7=
EXTT8=
EXTT9=
EXTT10=
EXTT11=
PLAYORDER=
